<svg xmlns="http://www.w3.org/2000/svg" viewBox="0 0 512 512" width="512" height="512">
  <!-- Background -->
  <rect width="512" height="512" rx="108" fill="#1e1e2e"/>

  <!-- Anvil icon (Lucide anvil, filled, scaled 19x) -->
  <g transform="translate(28, 18.5) scale(19)">
    <!-- Horn (left protrusion) - slightly darker for depth -->
    <path d="M7 10H6a4 4 0 0 1-4-4 1 1 0 0 1 1-1h4z" fill="#b99de6"/>
    <!-- Body (main anvil face) - brightest, top surface -->
    <path d="M7 5a1 1 0 0 1 1-1h13a1 1 0 0 1 1 1 7 7 0 0 1-7 7H8a1 1 0 0 1-1-1z" fill="#cba6f7"/>
    <!-- Left support leg -->
    <rect x="7.8" y="11.5" width="3" height="6" rx="0.4" fill="#b08de0"/>
    <!-- Right support leg -->
    <rect x="13.2" y="11.5" width="3" height="6" rx="0.4" fill="#b08de0"/>
    <!-- Base (wide foundation) - darkest, bottom -->
    <path d="M5 20a3 3 0 0 1 3-3h8a3 3 0 0 1 3 3 1 1 0 0 1-1 1H6a1 1 0 0 1-1-1z" fill="#a580d4"/>
  </g>
</svg>
